ISO-10303-21;
HEADER;
/* Generated by software containing ST-Developer
 * from STEP Tools, Inc. (www.steptools.com) 
 */

FILE_DESCRIPTION(
/* description */ (''),
/* implementation_level */ '2;1');

FILE_NAME(
/* name */ '20250626_PVCpipes.step',
/* time_stamp */ '2026-06-26T18:53:24+02:00',
/* author */ (''),
/* organization */ (''),
/* preprocessor_version */ 'ST-DEVELOPER v20.1',
/* originating_system */ 'Autodesk Translation Framework v15.8.0.0',
/* authorisation */ '');

FILE_SCHEMA (('AUTOMOTIVE_DESIGN { 1 0 10303 214 3 1 1 }'));
ENDSEC;

DATA;
#10=MECHANICAL_DESIGN_GEOMETRIC_PRESENTATION_REPRESENTATION('',(#13,#14),
#809);
#11=SHAPE_REPRESENTATION_RELATIONSHIP('SRR','None',#816,#12);
#12=ADVANCED_BREP_SHAPE_REPRESENTATION('',(#15,#16),#808);
#13=STYLED_ITEM('',(#826),#15);
#14=STYLED_ITEM('',(#826),#16);
#15=MANIFOLD_SOLID_BREP('PVC_1',#252);
#16=MANIFOLD_SOLID_BREP('PVC_2',#253);
#17=FACE_BOUND('',#61,.T.);
#18=FACE_BOUND('',#63,.T.);
#19=FACE_BOUND('',#65,.T.);
#20=FACE_BOUND('',#66,.T.);
#21=FACE_BOUND('',#67,.T.);
#22=FACE_BOUND('',#68,.T.);
#23=FACE_BOUND('',#69,.T.);
#24=FACE_BOUND('',#71,.T.);
#25=FACE_BOUND('',#72,.T.);
#26=FACE_BOUND('',#73,.T.);
#27=FACE_BOUND('',#74,.T.);
#28=FACE_BOUND('',#75,.T.);
#29=FACE_BOUND('',#78,.T.);
#30=FACE_BOUND('',#80,.T.);
#31=CIRCLE('',#272,55.43);
#32=CIRCLE('',#273,52.13);
#33=CIRCLE('',#275,55.43);
#34=CIRCLE('',#276,52.13);
#35=CIRCLE('',#281,20.);
#36=CIRCLE('',#282,18.);
#37=CIRCLE('',#284,20.);
#38=CIRCLE('',#285,18.);
#39=PLANE('',#271);
#40=PLANE('',#274);
#41=PLANE('',#280);
#42=PLANE('',#283);
#43=FACE_OUTER_BOUND('',#56,.T.);
#44=FACE_OUTER_BOUND('',#57,.T.);
#45=FACE_OUTER_BOUND('',#58,.T.);
#46=FACE_OUTER_BOUND('',#59,.T.);
#47=FACE_OUTER_BOUND('',#60,.T.);
#48=FACE_OUTER_BOUND('',#62,.T.);
#49=FACE_OUTER_BOUND('',#64,.T.);
#50=FACE_OUTER_BOUND('',#70,.T.);
#51=FACE_OUTER_BOUND('',#76,.T.);
#52=FACE_OUTER_BOUND('',#77,.T.);
#53=FACE_OUTER_BOUND('',#79,.T.);
#54=FACE_OUTER_BOUND('',#81,.T.);
#55=FACE_OUTER_BOUND('',#82,.T.);
#56=EDGE_LOOP('',(#168,#169,#170,#171));
#57=EDGE_LOOP('',(#172,#173,#174,#175));
#58=EDGE_LOOP('',(#176,#177,#178,#179));
#59=EDGE_LOOP('',(#180,#181,#182,#183,#184,#185));
#60=EDGE_LOOP('',(#186));
#61=EDGE_LOOP('',(#187));
#62=EDGE_LOOP('',(#188));
#63=EDGE_LOOP('',(#189));
#64=EDGE_LOOP('',(#190,#191,#192,#193));
#65=EDGE_LOOP('',(#194));
#66=EDGE_LOOP('',(#195));
#67=EDGE_LOOP('',(#196));
#68=EDGE_LOOP('',(#197,#198));
#69=EDGE_LOOP('',(#199,#200));
#70=EDGE_LOOP('',(#201,#202,#203,#204));
#71=EDGE_LOOP('',(#205));
#72=EDGE_LOOP('',(#206));
#73=EDGE_LOOP('',(#207));
#74=EDGE_LOOP('',(#208,#209));
#75=EDGE_LOOP('',(#210,#211));
#76=EDGE_LOOP('',(#212,#213,#214,#215,#216,#217));
#77=EDGE_LOOP('',(#218));
#78=EDGE_LOOP('',(#219));
#79=EDGE_LOOP('',(#220));
#80=EDGE_LOOP('',(#221));
#81=EDGE_LOOP('',(#222,#223,#224,#225));
#82=EDGE_LOOP('',(#226,#227,#228,#229));
#83=LINE('',#379,#92);
#84=LINE('',#451,#93);
#85=LINE('',#523,#94);
#86=LINE('',#598,#95);
#87=LINE('',#647,#96);
#88=LINE('',#719,#97);
#89=LINE('',#791,#98);
#90=LINE('',#803,#99);
#91=LINE('',#805,#100);
#92=VECTOR('',#292,3.15000000000001);
#93=VECTOR('',#295,3.00000000000001);
#94=VECTOR('',#298,3.);
#95=VECTOR('',#301,3.00000000000001);
#96=VECTOR('',#316,55.);
#97=VECTOR('',#319,51.7);
#98=VECTOR('',#322,19.);
#99=VECTOR('',#337,20.);
#100=VECTOR('',#340,20.);
#101=B_SPLINE_CURVE_WITH_KNOTS('',3,(#344,#345,#346,#347,#348,#349,#350,
#351,#352,#353,#354,#355,#356,#357,#358,#359,#360,#361,#362,#363,#364,#365,
#366,#367,#368,#369,#370,#371,#372,#373,#374,#375,#376,#377),
 .UNSPECIFIED.,.T.,.F.,(4,2,2,2,2,2,2,2,2,2,2,2,2,2,2,2,4),(0.,0.118683775697428,
0.237367551394857,0.356051455760351,0.474735360125845,0.593418885961595,
0.712102411797345,0.830786149347822,0.949469886898298,1.06815362444877,
1.18683736199925,1.305520887835,1.42420441367075,1.54288831803624,1.66157222240174,
1.78025599809917,1.8989397737966),.UNSPECIFIED.);
#102=B_SPLINE_CURVE_WITH_KNOTS('',3,(#380,#381,#382,#383,#384,#385,#386,
#387,#388,#389,#390,#391,#392,#393,#394,#395,#396,#397,#398,#399,#400,#401,
#402,#403,#404,#405,#406,#407,#408,#409,#410,#411,#412,#413),
 .UNSPECIFIED.,.T.,.F.,(4,2,2,2,2,2,2,2,2,2,2,2,2,2,2,2,4),(0.,0.118687372579679,
0.237374745159357,0.356062256999658,0.474749768839958,0.593436852636659,
0.712123936433359,0.830811265794623,0.949498595155887,1.06818592451715,
1.18687325387841,1.30556033767511,1.42424742147182,1.54293493331212,1.66162244515242,
1.78030981773209,1.89899719031177),.UNSPECIFIED.);
#103=B_SPLINE_CURVE_WITH_KNOTS('',3,(#416,#417,#418,#419,#420,#421,#422,
#423,#424,#425,#426,#427,#428,#429,#430,#431,#432,#433,#434,#435,#436,#437,
#438,#439,#440,#441,#442,#443,#444,#445,#446,#447,#448,#449),
 .UNSPECIFIED.,.T.,.F.,(4,2,2,2,2,2,2,2,2,2,2,2,2,2,2,2,4),(0.,0.113029731088856,
0.226059462177711,0.339089315172863,0.452119168168014,0.565148677866985,
0.678178187565955,0.791207884105143,0.904237580644331,1.01726727718352,
1.13029697372271,1.24332648342168,1.35635599312065,1.4693858461158,1.58241569911095,
1.69544543019981,1.80847516128866),.UNSPECIFIED.);
#104=B_SPLINE_CURVE_WITH_KNOTS('',3,(#452,#453,#454,#455,#456,#457,#458,
#459,#460,#461,#462,#463,#464,#465,#466,#467,#468,#469,#470,#471,#472,#473,
#474,#475,#476,#477,#478,#479,#480,#481,#482,#483,#484,#485),
 .UNSPECIFIED.,.T.,.F.,(4,2,2,2,2,2,2,2,2,2,2,2,2,2,2,2,4),(0.,0.113032836887155,
0.226065673774311,0.339098643624985,0.452131613475659,0.565164195131182,
0.678196776786705,0.791229574538414,0.904262372290124,1.01729517004183,
1.13032796779354,1.24336054944907,1.35639313110459,1.46942610095526,1.58245907080594,
1.69549190769309,1.80852474458025),.UNSPECIFIED.);
#105=B_SPLINE_CURVE_WITH_KNOTS('',3,(#488,#489,#490,#491,#492,#493,#494,
#495,#496,#497,#498,#499,#500,#501,#502,#503,#504,#505,#506,#507,#508,#509,
#510,#511,#512,#513,#514,#515,#516,#517,#518,#519,#520,#521),
 .UNSPECIFIED.,.T.,.F.,(4,2,2,2,2,2,2,2,2,2,2,2,2,2,2,2,4),(0.,0.113029713829038,
0.226059427658075,0.339089108694312,0.452118789730548,0.565148470766785,
0.678178151803022,0.791207865632059,0.904237579461097,1.01726729329013,
1.13029700711917,1.24332668815541,1.35635636919165,1.46938605022788,1.58241573126412,
1.69544544509316,1.80847515892219),.UNSPECIFIED.);
#106=B_SPLINE_CURVE_WITH_KNOTS('',3,(#524,#525,#526,#527,#528,#529,#530,
#531,#532,#533,#534,#535,#536,#537,#538,#539,#540,#541,#542,#543,#544,#545,
#546,#547,#548,#549,#550,#551,#552,#553,#554,#555,#556,#557),
 .UNSPECIFIED.,.T.,.F.,(4,2,2,2,2,2,2,2,2,2,2,2,2,2,2,2,4),(0.,0.113032817336345,
0.22606563467269,0.33909841007425,0.452131185475809,0.565163960877369,0.678196736278929,
0.791229553615274,0.904262370951619,1.01729518828796,1.13032800562431,1.24336078102587,
1.35639355642743,1.46942633182899,1.58245910723055,1.69549192456689,1.80852474190324),
 .UNSPECIFIED.);
#107=B_SPLINE_CURVE_WITH_KNOTS('',3,(#561,#562,#563,#564,#565,#566,#567,
#568,#569,#570,#571,#572,#573,#574,#575,#576,#577,#578),.UNSPECIFIED.,.F.,
 .F.,(4,2,2,2,2,2,2,2,4),(0.,0.113032817336348,0.226065634672696,0.339098410074253,
0.45213118547581,0.565163960877368,0.678196736278925,0.791229553615273,
0.904262370951621),.UNSPECIFIED.);
#108=B_SPLINE_CURVE_WITH_KNOTS('',3,(#579,#580,#581,#582,#583,#584,#585,
#586,#587,#588,#589,#590,#591,#592,#593,#594,#595,#596),.UNSPECIFIED.,.F.,
 .F.,(4,2,2,2,2,2,2,2,4),(0.904262370951621,1.01729518828797,1.13032800562432,
1.24336078102587,1.35639355642743,1.46942633182899,1.58245910723055,1.6954919245669,
1.80852474190325),.UNSPECIFIED.);
#109=B_SPLINE_CURVE_WITH_KNOTS('',3,(#600,#601,#602,#603,#604,#605,#606,
#607,#608,#609,#610,#611,#612,#613,#614,#615,#616,#617),.UNSPECIFIED.,.F.,
 .F.,(4,2,2,2,2,2,2,2,4),(0.,0.113029713829041,0.226059427658081,0.339089108694317,
0.452118789730552,0.565148470766787,0.678178151803022,0.791207865632062,
0.904237579461103),.UNSPECIFIED.);
#110=B_SPLINE_CURVE_WITH_KNOTS('',3,(#618,#619,#620,#621,#622,#623,#624,
#625,#626,#627,#628,#629,#630,#631,#632,#633,#634,#635),.UNSPECIFIED.,.F.,
 .F.,(4,2,2,2,2,2,2,2,4),(0.904237579461103,1.01726729329014,1.13029700711918,
1.24332668815542,1.35635636919165,1.46938605022789,1.58241573126412,1.69544544509316,
1.8084751589222),.UNSPECIFIED.);
#111=B_SPLINE_CURVE_WITH_KNOTS('',3,(#650,#651,#652,#653,#654,#655,#656,
#657,#658,#659,#660,#661,#662,#663,#664,#665,#666,#667),.UNSPECIFIED.,.F.,
 .F.,(4,2,2,2,2,2,2,2,4),(0.,0.360960819322321,0.721921638644642,1.08288245796696,
1.44384327728928,1.80378022581505,2.16371717434081,2.52365412286657,2.88359107139233),
 .UNSPECIFIED.);
#112=B_SPLINE_CURVE_WITH_KNOTS('',3,(#668,#669,#670,#671,#672,#673,#674,
#675,#676,#677,#678,#679,#680,#681,#682,#683,#684,#685,#686,#687,#688,#689,
#690,#691,#692,#693,#694,#695,#696,#697,#698,#699,#700,#701,#702,#703,#704,
#705,#706,#707,#708,#709,#710,#711,#712,#713,#714,#715,#716,#717),
 .UNSPECIFIED.,.F.,.F.,(4,2,2,2,2,2,2,2,2,2,2,2,2,2,2,2,2,2,2,2,2,2,2,2,
4),(2.88359107139233,3.24575490287692,3.60791873436152,3.97008256584611,
4.3322463973307,4.6935608545906,5.0548753118505,5.4161897691104,5.7775042263703,
6.13881868363019,6.50013314089009,6.86144759814999,7.22276205540989,7.58492588689448,
7.94708971837907,8.30925354986367,8.67141738134826,9.03135432987402,9.39129127839979,
9.75122822692555,10.1111651754513,10.4721259947736,10.8330868140959,11.1940476334183,
11.5550084527406),.UNSPECIFIED.);
#113=B_SPLINE_CURVE_WITH_KNOTS('',3,(#722,#723,#724,#725,#726,#727,#728,
#729,#730,#731,#732,#733,#734,#735,#736,#737,#738,#739,#740,#741,#742,#743,
#744,#745,#746,#747,#748,#749,#750,#751,#752,#753,#754,#755,#756,#757,#758,
#759,#760,#761,#762,#763,#764,#765,#766,#767,#768,#769,#770,#771),
 .UNSPECIFIED.,.F.,.F.,(4,2,2,2,2,2,2,2,2,2,2,2,2,2,2,2,2,2,2,2,2,2,2,2,
4),(0.,0.361401481259156,0.722802962518312,1.08420444377747,1.44560592503662,
1.80582221317948,2.16603850132234,2.5262547894652,2.88647107760806,3.24922220082581,
3.61197332404356,3.97472444726131,4.33747557047906,4.69930216292137,5.06112875536367,
5.42295534780598,5.78478194024829,6.1466085326906,6.50843512513291,6.87026171757522,
7.23208831001753,7.59483943323528,7.95759055645302,8.32034167967077,8.68309280288852),
 .UNSPECIFIED.);
#114=B_SPLINE_CURVE_WITH_KNOTS('',3,(#772,#773,#774,#775,#776,#777,#778,
#779,#780,#781,#782,#783,#784,#785,#786,#787,#788,#789),.UNSPECIFIED.,.F.,
 .F.,(4,2,2,2,2,2,2,2,4),(8.68309280288852,9.04330909103138,9.40352537917424,
9.7637416673171,10.12395795546,10.4853594367191,10.8467609179783,11.2081623992374,
11.5695638804966),.UNSPECIFIED.);
#115=VERTEX_POINT('',#343);
#116=VERTEX_POINT('',#378);
#117=VERTEX_POINT('',#415);
#118=VERTEX_POINT('',#450);
#119=VERTEX_POINT('',#487);
#120=VERTEX_POINT('',#522);
#121=VERTEX_POINT('',#559);
#122=VERTEX_POINT('',#560);
#123=VERTEX_POINT('',#597);
#124=VERTEX_POINT('',#599);
#125=VERTEX_POINT('',#637);
#126=VERTEX_POINT('',#639);
#127=VERTEX_POINT('',#642);
#128=VERTEX_POINT('',#644);
#129=VERTEX_POINT('',#648);
#130=VERTEX_POINT('',#649);
#131=VERTEX_POINT('',#720);
#132=VERTEX_POINT('',#721);
#133=VERTEX_POINT('',#793);
#134=VERTEX_POINT('',#795);
#135=VERTEX_POINT('',#798);
#136=VERTEX_POINT('',#800);
#137=EDGE_CURVE('',#115,#115,#101,.T.);
#138=EDGE_CURVE('',#115,#116,#83,.T.);
#139=EDGE_CURVE('',#116,#116,#102,.T.);
#140=EDGE_CURVE('',#117,#117,#103,.T.);
#141=EDGE_CURVE('',#117,#118,#84,.T.);
#142=EDGE_CURVE('',#118,#118,#104,.T.);
#143=EDGE_CURVE('',#119,#119,#105,.T.);
#144=EDGE_CURVE('',#119,#120,#85,.T.);
#145=EDGE_CURVE('',#120,#120,#106,.T.);
#146=EDGE_CURVE('',#121,#122,#107,.T.);
#147=EDGE_CURVE('',#122,#121,#108,.T.);
#148=EDGE_CURVE('',#122,#123,#86,.T.);
#149=EDGE_CURVE('',#124,#123,#109,.T.);
#150=EDGE_CURVE('',#123,#124,#110,.T.);
#151=EDGE_CURVE('',#125,#125,#31,.F.);
#152=EDGE_CURVE('',#126,#126,#32,.T.);
#153=EDGE_CURVE('',#127,#127,#33,.F.);
#154=EDGE_CURVE('',#128,#128,#34,.F.);
#155=EDGE_CURVE('',#127,#125,#87,.T.);
#156=EDGE_CURVE('',#129,#130,#111,.T.);
#157=EDGE_CURVE('',#130,#129,#112,.T.);
#158=EDGE_CURVE('',#128,#126,#88,.T.);
#159=EDGE_CURVE('',#131,#132,#113,.T.);
#160=EDGE_CURVE('',#132,#131,#114,.T.);
#161=EDGE_CURVE('',#130,#132,#89,.T.);
#162=EDGE_CURVE('',#133,#133,#35,.T.);
#163=EDGE_CURVE('',#134,#134,#36,.T.);
#164=EDGE_CURVE('',#135,#135,#37,.T.);
#165=EDGE_CURVE('',#136,#136,#38,.F.);
#166=EDGE_CURVE('',#136,#134,#90,.T.);
#167=EDGE_CURVE('',#133,#135,#91,.T.);
#168=ORIENTED_EDGE('',*,*,#137,.F.);
#169=ORIENTED_EDGE('',*,*,#138,.T.);
#170=ORIENTED_EDGE('',*,*,#139,.F.);
#171=ORIENTED_EDGE('',*,*,#138,.F.);
#172=ORIENTED_EDGE('',*,*,#140,.F.);
#173=ORIENTED_EDGE('',*,*,#141,.T.);
#174=ORIENTED_EDGE('',*,*,#142,.F.);
#175=ORIENTED_EDGE('',*,*,#141,.F.);
#176=ORIENTED_EDGE('',*,*,#143,.F.);
#177=ORIENTED_EDGE('',*,*,#144,.T.);
#178=ORIENTED_EDGE('',*,*,#145,.F.);
#179=ORIENTED_EDGE('',*,*,#144,.F.);
#180=ORIENTED_EDGE('',*,*,#146,.F.);
#181=ORIENTED_EDGE('',*,*,#147,.F.);
#182=ORIENTED_EDGE('',*,*,#148,.T.);
#183=ORIENTED_EDGE('',*,*,#149,.F.);
#184=ORIENTED_EDGE('',*,*,#150,.F.);
#185=ORIENTED_EDGE('',*,*,#148,.F.);
#186=ORIENTED_EDGE('',*,*,#151,.F.);
#187=ORIENTED_EDGE('',*,*,#152,.T.);
#188=ORIENTED_EDGE('',*,*,#153,.T.);
#189=ORIENTED_EDGE('',*,*,#154,.T.);
#190=ORIENTED_EDGE('',*,*,#153,.F.);
#191=ORIENTED_EDGE('',*,*,#155,.T.);
#192=ORIENTED_EDGE('',*,*,#151,.T.);
#193=ORIENTED_EDGE('',*,*,#155,.F.);
#194=ORIENTED_EDGE('',*,*,#137,.T.);
#195=ORIENTED_EDGE('',*,*,#140,.T.);
#196=ORIENTED_EDGE('',*,*,#143,.T.);
#197=ORIENTED_EDGE('',*,*,#149,.T.);
#198=ORIENTED_EDGE('',*,*,#150,.T.);
#199=ORIENTED_EDGE('',*,*,#156,.T.);
#200=ORIENTED_EDGE('',*,*,#157,.T.);
#201=ORIENTED_EDGE('',*,*,#154,.F.);
#202=ORIENTED_EDGE('',*,*,#158,.T.);
#203=ORIENTED_EDGE('',*,*,#152,.F.);
#204=ORIENTED_EDGE('',*,*,#158,.F.);
#205=ORIENTED_EDGE('',*,*,#139,.T.);
#206=ORIENTED_EDGE('',*,*,#142,.T.);
#207=ORIENTED_EDGE('',*,*,#145,.T.);
#208=ORIENTED_EDGE('',*,*,#146,.T.);
#209=ORIENTED_EDGE('',*,*,#147,.T.);
#210=ORIENTED_EDGE('',*,*,#159,.T.);
#211=ORIENTED_EDGE('',*,*,#160,.T.);
#212=ORIENTED_EDGE('',*,*,#156,.F.);
#213=ORIENTED_EDGE('',*,*,#157,.F.);
#214=ORIENTED_EDGE('',*,*,#161,.T.);
#215=ORIENTED_EDGE('',*,*,#159,.F.);
#216=ORIENTED_EDGE('',*,*,#160,.F.);
#217=ORIENTED_EDGE('',*,*,#161,.F.);
#218=ORIENTED_EDGE('',*,*,#162,.F.);
#219=ORIENTED_EDGE('',*,*,#163,.F.);
#220=ORIENTED_EDGE('',*,*,#164,.F.);
#221=ORIENTED_EDGE('',*,*,#165,.F.);
#222=ORIENTED_EDGE('',*,*,#165,.T.);
#223=ORIENTED_EDGE('',*,*,#166,.T.);
#224=ORIENTED_EDGE('',*,*,#163,.T.);
#225=ORIENTED_EDGE('',*,*,#166,.F.);
#226=ORIENTED_EDGE('',*,*,#162,.T.);
#227=ORIENTED_EDGE('',*,*,#167,.T.);
#228=ORIENTED_EDGE('',*,*,#164,.T.);
#229=ORIENTED_EDGE('',*,*,#167,.F.);
#230=CYLINDRICAL_SURFACE('',#267,3.15000000000001);
#231=CYLINDRICAL_SURFACE('',#268,3.00000000000001);
#232=CYLINDRICAL_SURFACE('',#269,3.);
#233=CYLINDRICAL_SURFACE('',#270,3.00000000000001);
#234=CYLINDRICAL_SURFACE('',#277,55.43);
#235=CYLINDRICAL_SURFACE('',#278,52.13);
#236=CYLINDRICAL_SURFACE('',#279,19.);
#237=CYLINDRICAL_SURFACE('',#286,18.);
#238=CYLINDRICAL_SURFACE('',#287,20.);
#239=ADVANCED_FACE('',(#43),#230,.F.);
#240=ADVANCED_FACE('',(#44),#231,.F.);
#241=ADVANCED_FACE('',(#45),#232,.F.);
#242=ADVANCED_FACE('',(#46),#233,.F.);
#243=ADVANCED_FACE('',(#47,#17),#39,.F.);
#244=ADVANCED_FACE('',(#48,#18),#40,.T.);
#245=ADVANCED_FACE('',(#49,#19,#20,#21,#22,#23),#234,.T.);
#246=ADVANCED_FACE('',(#50,#24,#25,#26,#27,#28),#235,.F.);
#247=ADVANCED_FACE('',(#51),#236,.F.);
#248=ADVANCED_FACE('',(#52,#29),#41,.T.);
#249=ADVANCED_FACE('',(#53,#30),#42,.F.);
#250=ADVANCED_FACE('',(#54),#237,.F.);
#251=ADVANCED_FACE('',(#55),#238,.T.);
#252=CLOSED_SHELL('',(#239,#240,#241,#242,#243,#244,#245,#246,#247));
#253=CLOSED_SHELL('',(#248,#249,#250,#251));
#254=DERIVED_UNIT_ELEMENT(#256,1.);
#255=DERIVED_UNIT_ELEMENT(#811,-3.);
#256=(
MASS_UNIT()
NAMED_UNIT(*)
SI_UNIT(.KILO.,.GRAM.)
);
#257=DERIVED_UNIT((#254,#255));
#258=MEASURE_REPRESENTATION_ITEM('density measure',
POSITIVE_RATIO_MEASURE(7850.),#257);
#259=PROPERTY_DEFINITION_REPRESENTATION(#264,#261);
#260=PROPERTY_DEFINITION_REPRESENTATION(#265,#262);
#261=REPRESENTATION('material name',(#263),#808);
#262=REPRESENTATION('density',(#258),#808);
#263=DESCRIPTIVE_REPRESENTATION_ITEM('Steel','Steel');
#264=PROPERTY_DEFINITION('material property','material name',#818);
#265=PROPERTY_DEFINITION('material property','density of part',#818);
#266=AXIS2_PLACEMENT_3D('',#341,#288,#289);
#267=AXIS2_PLACEMENT_3D('',#342,#290,#291);
#268=AXIS2_PLACEMENT_3D('',#414,#293,#294);
#269=AXIS2_PLACEMENT_3D('',#486,#296,#297);
#270=AXIS2_PLACEMENT_3D('',#558,#299,#300);
#271=AXIS2_PLACEMENT_3D('',#636,#302,#303);
#272=AXIS2_PLACEMENT_3D('',#638,#304,#305);
#273=AXIS2_PLACEMENT_3D('',#640,#306,#307);
#274=AXIS2_PLACEMENT_3D('',#641,#308,#309);
#275=AXIS2_PLACEMENT_3D('',#643,#310,#311);
#276=AXIS2_PLACEMENT_3D('',#645,#312,#313);
#277=AXIS2_PLACEMENT_3D('',#646,#314,#315);
#278=AXIS2_PLACEMENT_3D('',#718,#317,#318);
#279=AXIS2_PLACEMENT_3D('',#790,#320,#321);
#280=AXIS2_PLACEMENT_3D('',#792,#323,#324);
#281=AXIS2_PLACEMENT_3D('',#794,#325,#326);
#282=AXIS2_PLACEMENT_3D('',#796,#327,#328);
#283=AXIS2_PLACEMENT_3D('',#797,#329,#330);
#284=AXIS2_PLACEMENT_3D('',#799,#331,#332);
#285=AXIS2_PLACEMENT_3D('',#801,#333,#334);
#286=AXIS2_PLACEMENT_3D('',#802,#335,#336);
#287=AXIS2_PLACEMENT_3D('',#804,#338,#339);
#288=DIRECTION('axis',(0.,0.,1.));
#289=DIRECTION('refdir',(1.,0.,0.));
#290=DIRECTION('center_axis',(0.,0.,-1.));
#291=DIRECTION('ref_axis',(1.,0.,0.));
#292=DIRECTION('',(0.,0.,-1.));
#293=DIRECTION('center_axis',(0.,0.,-1.));
#294=DIRECTION('ref_axis',(1.,0.,0.));
#295=DIRECTION('',(0.,0.,-1.));
#296=DIRECTION('center_axis',(0.,0.,1.));
#297=DIRECTION('ref_axis',(-1.,0.,0.));
#298=DIRECTION('',(0.,0.,1.));
#299=DIRECTION('center_axis',(0.,0.,-1.));
#300=DIRECTION('ref_axis',(-1.,1.11022302462516E-16,0.));
#301=DIRECTION('',(0.,0.,-1.));
#302=DIRECTION('center_axis',(1.11022302462516E-16,1.,1.66533453693774E-16));
#303=DIRECTION('ref_axis',(1.,-1.11022302462516E-16,3.46944695195361E-18));
#304=DIRECTION('center_axis',(-1.11022302462516E-16,-1.,-1.66533453693774E-16));
#305=DIRECTION('ref_axis',(1.,-1.11022302462516E-16,3.46944695195361E-18));
#306=DIRECTION('center_axis',(1.11022302462516E-16,1.,1.66533453693774E-16));
#307=DIRECTION('ref_axis',(1.,-1.11022302462516E-16,3.46944695195361E-18));
#308=DIRECTION('center_axis',(1.11022302462516E-16,1.,1.66533453693774E-16));
#309=DIRECTION('ref_axis',(1.,-1.11022302462516E-16,3.46944695195361E-18));
#310=DIRECTION('center_axis',(-1.11022302462516E-16,-1.,-1.66533453693774E-16));
#311=DIRECTION('ref_axis',(1.,-1.11022302462516E-16,3.46944695195361E-18));
#312=DIRECTION('center_axis',(1.11022302462516E-16,1.,1.66533453693774E-16));
#313=DIRECTION('ref_axis',(1.,-1.11022302462516E-16,3.46944695195361E-18));
#314=DIRECTION('center_axis',(1.11022302462516E-16,1.,1.66533453693774E-16));
#315=DIRECTION('ref_axis',(1.,-1.11022302462516E-16,3.46944695195361E-18));
#316=DIRECTION('',(-1.11022302462516E-16,-1.,-1.66533453693774E-16));
#317=DIRECTION('center_axis',(1.11022302462516E-16,1.,1.66533453693774E-16));
#318=DIRECTION('ref_axis',(1.,-1.11022302462516E-16,3.46944695195361E-18));
#319=DIRECTION('',(-1.11022302462516E-16,-1.,-1.66533453693774E-16));
#320=DIRECTION('center_axis',(-0.464842045724618,5.16078341977331E-17,-0.885393625754417));
#321=DIRECTION('ref_axis',(-1.11022302462516E-16,-1.,-8.10917871320942E-34));
#322=DIRECTION('',(-0.464842045724618,5.16078341977331E-17,-0.885393625754417));
#323=DIRECTION('center_axis',(0.,-1.66533453693774E-16,1.));
#324=DIRECTION('ref_axis',(1.,0.,0.));
#325=DIRECTION('center_axis',(0.,1.66533453693774E-16,-1.));
#326=DIRECTION('ref_axis',(1.,0.,0.));
#327=DIRECTION('center_axis',(0.,-1.66533453693774E-16,1.));
#328=DIRECTION('ref_axis',(1.,0.,0.));
#329=DIRECTION('center_axis',(0.,-1.66533453693774E-16,1.));
#330=DIRECTION('ref_axis',(1.,0.,0.));
#331=DIRECTION('center_axis',(0.,-1.66533453693774E-16,1.));
#332=DIRECTION('ref_axis',(1.,0.,0.));
#333=DIRECTION('center_axis',(0.,-1.66533453693774E-16,1.));
#334=DIRECTION('ref_axis',(1.,0.,0.));
#335=DIRECTION('center_axis',(0.,-1.66533453693774E-16,1.));
#336=DIRECTION('ref_axis',(1.,0.,0.));
#337=DIRECTION('',(0.,-1.66533453693774E-16,1.));
#338=DIRECTION('center_axis',(0.,-1.66533453693774E-16,1.));
#339=DIRECTION('ref_axis',(1.,0.,0.));
#340=DIRECTION('',(0.,1.66533453693774E-16,-1.));
#341=CARTESIAN_POINT('',(0.,0.,0.));
#342=CARTESIAN_POINT('Origin',(-0.00400238517642038,102.382634821045,61.6010927827641));
#343=CARTESIAN_POINT('',(-3.15400238517643,102.382634821045,55.3401948763672));
#344=CARTESIAN_POINT('Ctrl Pts',(-3.15400238517643,102.382634821045,55.3401948763672));
#345=CARTESIAN_POINT('Ctrl Pts',(-3.15400238517643,102.778247406703,55.3401948763672));
#346=CARTESIAN_POINT('Ctrl Pts',(-3.07492165104614,103.200171088058,55.3448793321432));
#347=CARTESIAN_POINT('Ctrl Pts',(-2.75342632145684,103.976240401619,55.3618050184932));
#348=CARTESIAN_POINT('Ctrl Pts',(-2.5110164263143,104.330393275665,55.3738026016057));
#349=CARTESIAN_POINT('Ctrl Pts',(-1.95176256032602,104.889647593088,55.3963341849688));
#350=CARTESIAN_POINT('Ctrl Pts',(-1.59760946290636,105.132057950892,55.4083313851921));
#351=CARTESIAN_POINT('Ctrl Pts',(-0.821539484443831,105.453553928364,55.4252705519937));
#352=CARTESIAN_POINT('Ctrl Pts',(-0.399615398696759,105.532634821045,55.4299712898213));
#353=CARTESIAN_POINT('Ctrl Pts',(0.391609366578107,105.532634821045,55.430028421091));
#354=CARTESIAN_POINT('Ctrl Pts',(0.813532869893071,105.453554379392,55.4253886417166));
#355=CARTESIAN_POINT('Ctrl Pts',(1.58960253025245,105.132059159601,55.408561663452));
#356=CARTESIAN_POINT('Ctrl Pts',(1.94375584739654,104.889649084804,55.3966156962859));
#357=CARTESIAN_POINT('Ctrl Pts',(2.50301080914875,104.330394573338,55.3741650462107));
#358=CARTESIAN_POINT('Ctrl Pts',(2.74542119611895,103.976241123043,55.3622025712648));
#359=CARTESIAN_POINT('Ctrl Pts',(3.06691693805787,103.200171085071,55.3453234846181));
#360=CARTESIAN_POINT('Ctrl Pts',(3.14599761482359,102.778247279547,55.3406505112429));
#361=CARTESIAN_POINT('Ctrl Pts',(3.14599761482359,101.987022362543,55.3406505112429));
#362=CARTESIAN_POINT('Ctrl Pts',(3.06691693805787,101.565098557019,55.3453234846181));
#363=CARTESIAN_POINT('Ctrl Pts',(2.74542119611895,100.789028519047,55.3622025712648));
#364=CARTESIAN_POINT('Ctrl Pts',(2.50301080914875,100.434875068752,55.3741650462107));
#365=CARTESIAN_POINT('Ctrl Pts',(1.94375584739654,99.8756205572864,55.3966156962859));
#366=CARTESIAN_POINT('Ctrl Pts',(1.58960253025245,99.6332104824894,55.408561663452));
#367=CARTESIAN_POINT('Ctrl Pts',(0.813532869893072,99.3117152626982,55.4253886417166));
#368=CARTESIAN_POINT('Ctrl Pts',(0.391609366578108,99.232634821045,55.430028421091));
#369=CARTESIAN_POINT('Ctrl Pts',(-0.399615398696757,99.232634821045,55.4299712898213));
#370=CARTESIAN_POINT('Ctrl Pts',(-0.82153948444383,99.3117157137264,55.4252705519937));
#371=CARTESIAN_POINT('Ctrl Pts',(-1.59760946290635,99.6332116911982,55.4083313851921));
#372=CARTESIAN_POINT('Ctrl Pts',(-1.95176256032602,99.8756220490025,55.3963341849688));
#373=CARTESIAN_POINT('Ctrl Pts',(-2.5110164263143,100.434876366425,55.3738026016057));
#374=CARTESIAN_POINT('Ctrl Pts',(-2.75342632145684,100.789029240471,55.3618050184932));
#375=CARTESIAN_POINT('Ctrl Pts',(-3.07492165104614,101.565098554032,55.3448793321432));
#376=CARTESIAN_POINT('Ctrl Pts',(-3.15400238517643,101.987022235387,55.3401948763672));
#377=CARTESIAN_POINT('Ctrl Pts',(-3.15400238517643,102.382634821045,55.3401948763672));
#378=CARTESIAN_POINT('',(-3.15400238517643,102.382634821045,52.0344997953694));
#379=CARTESIAN_POINT('',(-3.15400238517643,102.382634821045,61.6010927827641));
#380=CARTESIAN_POINT('Ctrl Pts',(-3.15400238517643,102.382634821045,52.0344997953694));
#381=CARTESIAN_POINT('Ctrl Pts',(-3.15400238517643,101.987010245779,52.0344997953694));
#382=CARTESIAN_POINT('Ctrl Pts',(-3.07491696910773,101.565081427944,52.0394821940269));
#383=CARTESIAN_POINT('Ctrl Pts',(-2.75341820438627,100.789015470797,52.0574827430231));
#384=CARTESIAN_POINT('Ctrl Pts',(-2.51101016827103,100.434870137878,52.070241587929));
#385=CARTESIAN_POINT('Ctrl Pts',(-1.95176902843046,99.8756284876108,52.0942014905107));
#386=CARTESIAN_POINT('Ctrl Pts',(-1.59762343658201,99.6332199167373,52.1069587517618));
#387=CARTESIAN_POINT('Ctrl Pts',(-0.82155670594694,99.3117204112493,52.1249709408137));
#388=CARTESIAN_POINT('Ctrl Pts',(-0.399627423478041,99.232634821045,52.1299694714495));
#389=CARTESIAN_POINT('Ctrl Pts',(0.391621226313205,99.232634821045,52.1300302211498));
#390=CARTESIAN_POINT('Ctrl Pts',(0.813549850138029,99.3117199012043,52.1250965124536));
#391=CARTESIAN_POINT('Ctrl Pts',(1.58961622106953,99.6332185498959,52.1072036292693));
#392=CARTESIAN_POINT('Ctrl Pts',(1.94376206144534,99.8756268007565,52.0945008555212));
#393=CARTESIAN_POINT('Ctrl Pts',(2.50300444042002,100.434868670602,52.0706270313003));
#394=CARTESIAN_POINT('Ctrl Pts',(2.74541303273223,100.789014655211,52.0579055308369));
#395=CARTESIAN_POINT('Ctrl Pts',(3.06691226370569,101.565081431614,52.0399545559507));
#396=CARTESIAN_POINT('Ctrl Pts',(3.14599761482359,101.987010389841,52.0349843759708));
#397=CARTESIAN_POINT('Ctrl Pts',(3.14599761482359,102.778259252249,52.0349843759708));
#398=CARTESIAN_POINT('Ctrl Pts',(3.06691226370571,103.200188210476,52.0399545559507));
#399=CARTESIAN_POINT('Ctrl Pts',(2.74541303273226,103.976254986879,52.0579055308369));
#400=CARTESIAN_POINT('Ctrl Pts',(2.50300444042002,104.330400971488,52.0706270313003));
#401=CARTESIAN_POINT('Ctrl Pts',(1.94376206144534,104.889642841334,52.0945008555212));
#402=CARTESIAN_POINT('Ctrl Pts',(1.58961622106953,105.132051092194,52.1072036292693));
#403=CARTESIAN_POINT('Ctrl Pts',(0.81354985013803,105.453549740886,52.1250965124536));
#404=CARTESIAN_POINT('Ctrl Pts',(0.391621226313206,105.532634821045,52.1300302211498));
#405=CARTESIAN_POINT('Ctrl Pts',(-0.399627423478041,105.532634821045,52.1299694714495));
#406=CARTESIAN_POINT('Ctrl Pts',(-0.82155670594694,105.453549230841,52.1249709408137));
#407=CARTESIAN_POINT('Ctrl Pts',(-1.59762343658201,105.132049725353,52.1069587517618));
#408=CARTESIAN_POINT('Ctrl Pts',(-1.95176902843046,104.889641154479,52.0942014905107));
#409=CARTESIAN_POINT('Ctrl Pts',(-2.51101016827103,104.330399504212,52.070241587929));
#410=CARTESIAN_POINT('Ctrl Pts',(-2.75341820438627,103.976254171293,52.0574827430231));
#411=CARTESIAN_POINT('Ctrl Pts',(-3.07491696910773,103.200188214147,52.0394821940269));
#412=CARTESIAN_POINT('Ctrl Pts',(-3.15400238517643,102.778259396311,52.0344997953694));
#413=CARTESIAN_POINT('Ctrl Pts',(-3.15400238517643,102.382634821045,52.0344997953694));
#414=CARTESIAN_POINT('Origin',(-0.00400238517642038,131.422483825537,61.6010927827641));
#415=CARTESIAN_POINT('',(-3.00400238517643,131.422483825537,55.3485399054922));
#416=CARTESIAN_POINT('Ctrl Pts',(-3.00400238517643,131.422483825537,55.3485399054922));
#417=CARTESIAN_POINT('Ctrl Pts',(-3.00400238517643,131.799249595833,55.3485399054922));
#418=CARTESIAN_POINT('Ctrl Pts',(-2.92869057162698,132.201078188462,55.3527882547713));
#419=CARTESIAN_POINT('Ctrl Pts',(-2.62250688127377,132.940194077454,55.3681393372559));
#420=CARTESIAN_POINT('Ctrl Pts',(-2.39163906618361,133.277487626912,55.3790212170317));
#421=CARTESIAN_POINT('Ctrl Pts',(-1.85900773487489,133.810119367694,55.3994586505521));
#422=CARTESIAN_POINT('Ctrl Pts',(-1.52171398817999,134.040987592889,55.4103412628094));
#423=CARTESIAN_POINT('Ctrl Pts',(-0.782597514052856,134.347171863735,55.4257076946516));
#424=CARTESIAN_POINT('Ctrl Pts',(-0.380768560844748,134.422483825537,55.4299726506783));
#425=CARTESIAN_POINT('Ctrl Pts',(0.372762646171307,134.422483825537,55.4300270602424));
#426=CARTESIAN_POINT('Ctrl Pts',(0.774591071175245,134.347172272771,55.4258201569432));
#427=CARTESIAN_POINT('Ctrl Pts',(1.51370725680299,134.040988689076,55.4105605614932));
#428=CARTESIAN_POINT('Ctrl Pts',(1.85100120273511,133.810120720554,55.399726735469));
#429=CARTESIAN_POINT('Ctrl Pts',(2.38363352779229,133.277488803878,55.3793663674222));
#430=CARTESIAN_POINT('Ctrl Pts',(2.61450178891055,132.940194731844,55.368517915194));
#431=CARTESIAN_POINT('Ctrl Pts',(2.92068585325206,132.20107818592,55.3532111977768));
#432=CARTESIAN_POINT('Ctrl Pts',(2.99599761482359,131.799249480667,55.3489737781287));
#433=CARTESIAN_POINT('Ctrl Pts',(2.99599761482359,131.045718170406,55.3489737781287));
#434=CARTESIAN_POINT('Ctrl Pts',(2.92068585325206,130.643889465154,55.3532111977768));
#435=CARTESIAN_POINT('Ctrl Pts',(2.61450178891055,129.904772919229,55.368517915194));
#436=CARTESIAN_POINT('Ctrl Pts',(2.38363352779229,129.567478847196,55.3793663674222));
#437=CARTESIAN_POINT('Ctrl Pts',(1.85100120273511,129.03484693052,55.399726735469));
#438=CARTESIAN_POINT('Ctrl Pts',(1.51370725680298,128.803978961998,55.4105605614932));
#439=CARTESIAN_POINT('Ctrl Pts',(0.774591071175226,128.497795378303,55.4258201569432));
#440=CARTESIAN_POINT('Ctrl Pts',(0.372762646171308,128.422483825537,55.4300270602424));
#441=CARTESIAN_POINT('Ctrl Pts',(-0.380768560844747,128.422483825537,55.4299726506783));
#442=CARTESIAN_POINT('Ctrl Pts',(-0.782597514052856,128.497795787338,55.4257076946516));
#443=CARTESIAN_POINT('Ctrl Pts',(-1.52171398817999,128.803980058185,55.4103412628094));
#444=CARTESIAN_POINT('Ctrl Pts',(-1.85900773487489,129.034848283379,55.3994586505521));
#445=CARTESIAN_POINT('Ctrl Pts',(-2.39163906618361,129.567480024162,55.3790212170317));
#446=CARTESIAN_POINT('Ctrl Pts',(-2.62250688127376,129.904773573619,55.3681393372559));
#447=CARTESIAN_POINT('Ctrl Pts',(-2.92869057162697,130.643889462612,55.3527882547713));
#448=CARTESIAN_POINT('Ctrl Pts',(-3.00400238517643,131.045718055241,55.3485399054922));
#449=CARTESIAN_POINT('Ctrl Pts',(-3.00400238517643,131.422483825537,55.3485399054922));
#450=CARTESIAN_POINT('',(-3.00400238517643,131.422483825537,52.0433748873942));
#451=CARTESIAN_POINT('',(-3.00400238517643,131.422483825537,61.6010927827641));
#452=CARTESIAN_POINT('Ctrl Pts',(-3.00400238517643,131.422483825537,52.0433748873942));
#453=CARTESIAN_POINT('Ctrl Pts',(-3.00400238517643,131.04570770258,52.0433748873942));
#454=CARTESIAN_POINT('Ctrl Pts',(-2.92868652852051,130.64387467307,52.0478933236834));
#455=CARTESIAN_POINT('Ctrl Pts',(-2.6224998716958,129.904761682579,52.0642189858364));
#456=CARTESIAN_POINT('Ctrl Pts',(-2.39163366242307,129.567474647155,52.0757911848295));
#457=CARTESIAN_POINT('Ctrl Pts',(-1.85901332573822,129.03485384749,52.0975240172031));
#458=CARTESIAN_POINT('Ctrl Pts',(-1.52172606231429,128.803987165406,52.1090960273992));
#459=CARTESIAN_POINT('Ctrl Pts',(-0.782612393231183,128.497799845795,52.125435795228));
#460=CARTESIAN_POINT('Ctrl Pts',(-0.380778950234839,128.422483825537,52.1299709185788));
#461=CARTESIAN_POINT('Ctrl Pts',(0.372772885898167,128.422483825537,52.1300287740307));
#462=CARTESIAN_POINT('Ctrl Pts',(0.774605731585839,128.497799383247,52.1255553823222));
#463=CARTESIAN_POINT('Ctrl Pts',(1.51371907444498,128.80398592583,52.1093292273041));
#464=CARTESIAN_POINT('Ctrl Pts',(1.85100656321472,129.034852317681,52.0978091013643));
#465=CARTESIAN_POINT('Ctrl Pts',(2.38362802364954,129.567473316371,52.0761582317259));
#466=CARTESIAN_POINT('Ctrl Pts',(2.61449473731456,129.904760942771,52.0646215882804));
#467=CARTESIAN_POINT('Ctrl Pts',(2.92068181701162,130.643874676185,52.0483431207915));
#468=CARTESIAN_POINT('Ctrl Pts',(2.99599761482359,131.045707833031,52.0438363141302));
#469=CARTESIAN_POINT('Ctrl Pts',(2.99599761482359,131.799259818043,52.0438363141302));
#470=CARTESIAN_POINT('Ctrl Pts',(2.92068181701162,132.201092974888,52.0483431207915));
#471=CARTESIAN_POINT('Ctrl Pts',(2.61449473731457,132.940206708303,52.0646215882804));
#472=CARTESIAN_POINT('Ctrl Pts',(2.38362802364955,133.277494334703,52.0761582317259));
#473=CARTESIAN_POINT('Ctrl Pts',(1.85100656321472,133.810115333392,52.0978091013643));
#474=CARTESIAN_POINT('Ctrl Pts',(1.51371907444498,134.040981725244,52.1093292273041));
#475=CARTESIAN_POINT('Ctrl Pts',(0.774605731585837,134.347168267827,52.1255553823222));
#476=CARTESIAN_POINT('Ctrl Pts',(0.372772885898166,134.422483825537,52.1300287740307));
#477=CARTESIAN_POINT('Ctrl Pts',(-0.38077895023484,134.422483825537,52.1299709185788));
#478=CARTESIAN_POINT('Ctrl Pts',(-0.782612393231194,134.347167805278,52.125435795228));
#479=CARTESIAN_POINT('Ctrl Pts',(-1.52172606231429,134.040980485667,52.1090960273992));
#480=CARTESIAN_POINT('Ctrl Pts',(-1.85901332573822,133.810113803584,52.0975240172031));
#481=CARTESIAN_POINT('Ctrl Pts',(-2.39163366242306,133.277493003919,52.0757911848295));
#482=CARTESIAN_POINT('Ctrl Pts',(-2.6224998716958,132.940205968494,52.0642189858364));
#483=CARTESIAN_POINT('Ctrl Pts',(-2.92868652852051,132.201092978004,52.0478933236834));
#484=CARTESIAN_POINT('Ctrl Pts',(-3.00400238517643,131.799259948494,52.0433748873942));
#485=CARTESIAN_POINT('Ctrl Pts',(-3.00400238517643,131.422483825537,52.0433748873942));
#486=CARTESIAN_POINT('Origin',(-1.98951966012828E-12,81.9734791695043,-60.0752088886823));
#487=CARTESIAN_POINT('',(2.99999999999801,81.9734791695043,-55.3487569869461));
#488=CARTESIAN_POINT('Ctrl Pts',(2.99999999999801,81.9734791695043,-55.3487569869461));
#489=CARTESIAN_POINT('Ctrl Pts',(2.99999999999801,82.3502448822677,-55.3487569869461));
#490=CARTESIAN_POINT('Ctrl Pts',(2.92468821242349,82.7520735313329,-55.3529998713756));
#491=CARTESIAN_POINT('Ctrl Pts',(2.61850433479557,83.4911897491874,-55.3683287712327));
#492=CARTESIAN_POINT('Ctrl Pts',(2.38763629641905,83.8284835602025,-55.3791939371781));
#493=CARTESIAN_POINT('Ctrl Pts',(1.8550044679613,84.3611153886603,-55.3995928378377));
#494=CARTESIAN_POINT('Ctrl Pts',(1.51771062191495,84.5919834852469,-55.4104510568879));
#495=CARTESIAN_POINT('Ctrl Pts',(0.778594292432602,84.8981674122359,-55.4257640703905));
#496=CARTESIAN_POINT('Ctrl Pts',(0.376765603452133,84.9734791695043,-55.43));
#497=CARTESIAN_POINT('Ctrl Pts',(-0.376765603456111,84.9734791695043,-55.43));
#498=CARTESIAN_POINT('Ctrl Pts',(-0.778594292436581,84.8981674122359,-55.4257640703904));
#499=CARTESIAN_POINT('Ctrl Pts',(-1.51771062191893,84.5919834852469,-55.4104510568878));
#500=CARTESIAN_POINT('Ctrl Pts',(-1.85500446796528,84.3611153886603,-55.3995928378375));
#501=CARTESIAN_POINT('Ctrl Pts',(-2.38763629642303,83.8284835602025,-55.379193937178));
#502=CARTESIAN_POINT('Ctrl Pts',(-2.61850433479955,83.4911897491874,-55.3683287712325));
#503=CARTESIAN_POINT('Ctrl Pts',(-2.92468821242746,82.7520735313329,-55.3529998713754));
#504=CARTESIAN_POINT('Ctrl Pts',(-3.00000000000199,82.3502448822677,-55.3487569869459));
#505=CARTESIAN_POINT('Ctrl Pts',(-3.00000000000199,81.5967134567408,-55.3487569869459));
#506=CARTESIAN_POINT('Ctrl Pts',(-2.92468821242746,81.1948848076757,-55.3529998713754));
#507=CARTESIAN_POINT('Ctrl Pts',(-2.61850433479955,80.4557685898212,-55.3683287712325));
#508=CARTESIAN_POINT('Ctrl Pts',(-2.38763629642303,80.118474778806,-55.379193937178));
#509=CARTESIAN_POINT('Ctrl Pts',(-1.85500446796529,79.5858429503483,-55.3995928378375));
#510=CARTESIAN_POINT('Ctrl Pts',(-1.51771062191893,79.3549748537616,-55.4104510568878));
#511=CARTESIAN_POINT('Ctrl Pts',(-0.778594292436587,79.0487909267726,-55.4257640703904));
#512=CARTESIAN_POINT('Ctrl Pts',(-0.376765603456112,78.9734791695043,-55.43));
#513=CARTESIAN_POINT('Ctrl Pts',(0.376765603452131,78.9734791695043,-55.43));
#514=CARTESIAN_POINT('Ctrl Pts',(0.778594292432608,79.0487909267726,-55.4257640703905));
#515=CARTESIAN_POINT('Ctrl Pts',(1.51771062191495,79.3549748537616,-55.4104510568879));
#516=CARTESIAN_POINT('Ctrl Pts',(1.85500446796131,79.5858429503483,-55.3995928378377));
#517=CARTESIAN_POINT('Ctrl Pts',(2.38763629641905,80.118474778806,-55.3791939371781));
#518=CARTESIAN_POINT('Ctrl Pts',(2.61850433479555,80.4557685898211,-55.3683287712327));
#519=CARTESIAN_POINT('Ctrl Pts',(2.92468821242347,81.1948848076756,-55.3529998713756));
#520=CARTESIAN_POINT('Ctrl Pts',(2.99999999999801,81.5967134567408,-55.3487569869461));
#521=CARTESIAN_POINT('Ctrl Pts',(2.99999999999801,81.9734791695043,-55.3487569869461));
#522=CARTESIAN_POINT('',(2.99999999999801,81.9734791695043,-52.0436057551743));
#523=CARTESIAN_POINT('',(2.99999999999801,81.9734791695043,-60.0752088886823));
#524=CARTESIAN_POINT('Ctrl Pts',(2.99999999999801,81.9734791695043,-52.0436057551743));
#525=CARTESIAN_POINT('Ctrl Pts',(2.99999999999801,81.5967031117165,-52.0436057551743));
#526=CARTESIAN_POINT('Ctrl Pts',(2.92468417274827,81.1948700183982,-52.0481183766084));
#527=CARTESIAN_POINT('Ctrl Pts',(2.6184973041701,80.4557566559972,-52.0644204413166));
#528=CARTESIAN_POINT('Ctrl Pts',(2.38763084239321,80.1184693247802,-52.0759748624678));
#529=CARTESIAN_POINT('Ctrl Pts',(1.85500994352237,79.5858484259093,-52.0976667133246));
#530=CARTESIAN_POINT('Ctrl Pts',(1.51772256772744,79.3549818892492,-52.1092127812838));
#531=CARTESIAN_POINT('Ctrl Pts',(0.778609062203087,79.048794958471,-52.1254957425346));
#532=CARTESIAN_POINT('Ctrl Pts',(0.376775918003209,78.9734791695043,-52.13));
#533=CARTESIAN_POINT('Ctrl Pts',(-0.376775918007189,78.9734791695043,-52.13));
#534=CARTESIAN_POINT('Ctrl Pts',(-0.778609062207068,79.048794958471,-52.1254957425346));
#535=CARTESIAN_POINT('Ctrl Pts',(-1.51772256773143,79.3549818892492,-52.1092127812837));
#536=CARTESIAN_POINT('Ctrl Pts',(-1.85500994352635,79.5858484259094,-52.0976667133245));
#537=CARTESIAN_POINT('Ctrl Pts',(-2.38763084239719,80.1184693247802,-52.0759748624677));
#538=CARTESIAN_POINT('Ctrl Pts',(-2.61849730417409,80.4557566559972,-52.0644204413164));
#539=CARTESIAN_POINT('Ctrl Pts',(-2.92468417275225,81.1948700183982,-52.0481183766082));
#540=CARTESIAN_POINT('Ctrl Pts',(-3.00000000000199,81.5967031117165,-52.0436057551741));
#541=CARTESIAN_POINT('Ctrl Pts',(-3.00000000000199,82.3502552272921,-52.0436057551741));
#542=CARTESIAN_POINT('Ctrl Pts',(-2.92468417275224,82.7520883206104,-52.0481183766082));
#543=CARTESIAN_POINT('Ctrl Pts',(-2.61849730417407,83.4912016830113,-52.0644204413164));
#544=CARTESIAN_POINT('Ctrl Pts',(-2.38763084239719,83.8284890142284,-52.0759748624677));
#545=CARTESIAN_POINT('Ctrl Pts',(-1.85500994352635,84.3611099130992,-52.0976667133245));
#546=CARTESIAN_POINT('Ctrl Pts',(-1.51772256773144,84.5919764497594,-52.1092127812837));
#547=CARTESIAN_POINT('Ctrl Pts',(-0.778609062207073,84.8981633805376,-52.1254957425346));
#548=CARTESIAN_POINT('Ctrl Pts',(-0.37677591800719,84.9734791695043,-52.13));
#549=CARTESIAN_POINT('Ctrl Pts',(0.37677591800321,84.9734791695043,-52.13));
#550=CARTESIAN_POINT('Ctrl Pts',(0.778609062203086,84.8981633805376,-52.1254957425346));
#551=CARTESIAN_POINT('Ctrl Pts',(1.51772256772744,84.5919764497594,-52.1092127812838));
#552=CARTESIAN_POINT('Ctrl Pts',(1.85500994352237,84.3611099130992,-52.0976667133246));
#553=CARTESIAN_POINT('Ctrl Pts',(2.38763084239321,83.8284890142283,-52.0759748624678));
#554=CARTESIAN_POINT('Ctrl Pts',(2.61849730417011,83.4912016830113,-52.0644204413166));
#555=CARTESIAN_POINT('Ctrl Pts',(2.92468417274827,82.7520883206103,-52.0481183766084));
#556=CARTESIAN_POINT('Ctrl Pts',(2.99999999999801,82.3502552272921,-52.0436057551743));
#557=CARTESIAN_POINT('Ctrl Pts',(2.99999999999801,81.9734791695043,-52.0436057551743));
#558=CARTESIAN_POINT('Origin',(-1.98951966012828E-12,126.723626318402,-38.1593905962538));
#559=CARTESIAN_POINT('',(-3.0000000000021,126.723626318402,-52.0436057551741));
#560=CARTESIAN_POINT('',(2.99999999999802,126.723626318402,-52.0436057551741));
#561=CARTESIAN_POINT('Ctrl Pts',(-3.00000000000199,126.723626318402,-52.0436057551741));
#562=CARTESIAN_POINT('Ctrl Pts',(-3.00000000000199,127.10040237619,-52.0436057551741));
#563=CARTESIAN_POINT('Ctrl Pts',(-2.92468417275217,127.502235469508,-52.0481183766082));
#564=CARTESIAN_POINT('Ctrl Pts',(-2.61849730417424,128.241348831909,-52.0644204413164));
#565=CARTESIAN_POINT('Ctrl Pts',(-2.38763084239707,128.578636163126,-52.0759748624677));
#566=CARTESIAN_POINT('Ctrl Pts',(-1.85500994352623,129.111257061997,-52.0976667133245));
#567=CARTESIAN_POINT('Ctrl Pts',(-1.51772256773114,129.342123598657,-52.1092127812837));
#568=CARTESIAN_POINT('Ctrl Pts',(-0.778609062206499,129.648310529435,-52.1254957425345));
#569=CARTESIAN_POINT('Ctrl Pts',(-0.376775918007013,129.723626318402,-52.13));
#570=CARTESIAN_POINT('Ctrl Pts',(0.376775918003034,129.723626318402,-52.13));
#571=CARTESIAN_POINT('Ctrl Pts',(0.77860906220252,129.648310529435,-52.1254957425346));
#572=CARTESIAN_POINT('Ctrl Pts',(1.51772256772716,129.342123598657,-52.1092127812838));
#573=CARTESIAN_POINT('Ctrl Pts',(1.85500994352225,129.111257061997,-52.0976667133246));
#574=CARTESIAN_POINT('Ctrl Pts',(2.38763084239309,128.578636163126,-52.0759748624678));
#575=CARTESIAN_POINT('Ctrl Pts',(2.61849730417026,128.241348831909,-52.0644204413166));
#576=CARTESIAN_POINT('Ctrl Pts',(2.92468417274819,127.502235469508,-52.0481183766084));
#577=CARTESIAN_POINT('Ctrl Pts',(2.99999999999802,127.10040237619,-52.0436057551743));
#578=CARTESIAN_POINT('Ctrl Pts',(2.99999999999802,126.723626318402,-52.0436057551743));
#579=CARTESIAN_POINT('Ctrl Pts',(2.99999999999801,126.723626318402,-52.0436057551743));
#580=CARTESIAN_POINT('Ctrl Pts',(2.99999999999801,126.346850260614,-52.0436057551743));
#581=CARTESIAN_POINT('Ctrl Pts',(2.92468417274819,125.945017167296,-52.0481183766084));
#582=CARTESIAN_POINT('Ctrl Pts',(2.61849730417026,125.205903804895,-52.0644204413166));
#583=CARTESIAN_POINT('Ctrl Pts',(2.38763084239309,124.868616473678,-52.0759748624678));
#584=CARTESIAN_POINT('Ctrl Pts',(1.85500994352225,124.335995574807,-52.0976667133246));
#585=CARTESIAN_POINT('Ctrl Pts',(1.51772256772716,124.105129038147,-52.1092127812838));
#586=CARTESIAN_POINT('Ctrl Pts',(0.77860906220252,123.798942107369,-52.1254957425346));
#587=CARTESIAN_POINT('Ctrl Pts',(0.376775918003034,123.723626318402,-52.13));
#588=CARTESIAN_POINT('Ctrl Pts',(-0.376775918007013,123.723626318402,-52.13));
#589=CARTESIAN_POINT('Ctrl Pts',(-0.778609062206499,123.798942107369,-52.1254957425345));
#590=CARTESIAN_POINT('Ctrl Pts',(-1.51772256773114,124.105129038147,-52.1092127812837));
#591=CARTESIAN_POINT('Ctrl Pts',(-1.85500994352623,124.335995574807,-52.0976667133245));
#592=CARTESIAN_POINT('Ctrl Pts',(-2.38763084239707,124.868616473678,-52.0759748624677));
#593=CARTESIAN_POINT('Ctrl Pts',(-2.61849730417424,125.205903804895,-52.0644204413164));
#594=CARTESIAN_POINT('Ctrl Pts',(-2.92468417275217,125.945017167296,-52.0481183766082));
#595=CARTESIAN_POINT('Ctrl Pts',(-3.000000000002,126.346850260614,-52.0436057551741));
#596=CARTESIAN_POINT('Ctrl Pts',(-3.00000000000199,126.723626318402,-52.0436057551741));
#597=CARTESIAN_POINT('',(2.99999999999802,126.723626318402,-55.3487569869461));
#598=CARTESIAN_POINT('',(2.99999999999802,126.723626318402,-38.1593905962538));
#599=CARTESIAN_POINT('',(-3.00000000000182,126.723626318402,-55.3487569869459));
#600=CARTESIAN_POINT('Ctrl Pts',(-3.000000000002,126.723626318402,-55.3487569869459));
#601=CARTESIAN_POINT('Ctrl Pts',(-3.000000000002,126.346860605639,-55.3487569869459));
#602=CARTESIAN_POINT('Ctrl Pts',(-2.9246882124275,125.945031956574,-55.3529998713753));
#603=CARTESIAN_POINT('Ctrl Pts',(-2.61850433479964,125.205915738719,-55.3683287712325));
#604=CARTESIAN_POINT('Ctrl Pts',(-2.38763629642307,124.868621927704,-55.379193937178));
#605=CARTESIAN_POINT('Ctrl Pts',(-1.8550044679651,124.335990099246,-55.3995928378375));
#606=CARTESIAN_POINT('Ctrl Pts',(-1.51771062191898,124.105122002659,-55.4104510568878));
#607=CARTESIAN_POINT('Ctrl Pts',(-0.778594292436878,123.79893807567,-55.4257640703904));
#608=CARTESIAN_POINT('Ctrl Pts',(-0.376765603456022,123.723626318402,-55.43));
#609=CARTESIAN_POINT('Ctrl Pts',(0.376765603452043,123.723626318402,-55.43));
#610=CARTESIAN_POINT('Ctrl Pts',(0.778594292432899,123.79893807567,-55.4257640703905));
#611=CARTESIAN_POINT('Ctrl Pts',(1.517710621915,124.105122002659,-55.4104510568879));
#612=CARTESIAN_POINT('Ctrl Pts',(1.85500446796112,124.335990099246,-55.3995928378377));
#613=CARTESIAN_POINT('Ctrl Pts',(2.38763629641909,124.868621927704,-55.3791939371781));
#614=CARTESIAN_POINT('Ctrl Pts',(2.61850433479566,125.205915738719,-55.3683287712327));
#615=CARTESIAN_POINT('Ctrl Pts',(2.92468821242352,125.945031956574,-55.3529998713755));
#616=CARTESIAN_POINT('Ctrl Pts',(2.99999999999802,126.346860605639,-55.3487569869461));
#617=CARTESIAN_POINT('Ctrl Pts',(2.99999999999802,126.723626318402,-55.3487569869461));
#618=CARTESIAN_POINT('Ctrl Pts',(2.99999999999802,126.723626318402,-55.3487569869461));
#619=CARTESIAN_POINT('Ctrl Pts',(2.99999999999802,127.100392031166,-55.3487569869461));
#620=CARTESIAN_POINT('Ctrl Pts',(2.92468821242352,127.502220680231,-55.3529998713755));
#621=CARTESIAN_POINT('Ctrl Pts',(2.61850433479566,128.241336898085,-55.3683287712327));
#622=CARTESIAN_POINT('Ctrl Pts',(2.38763629641909,128.5786307091,-55.3791939371781));
#623=CARTESIAN_POINT('Ctrl Pts',(1.85500446796112,129.111262537558,-55.3995928378377));
#624=CARTESIAN_POINT('Ctrl Pts',(1.517710621915,129.342130634145,-55.4104510568879));
#625=CARTESIAN_POINT('Ctrl Pts',(0.778594292432899,129.648314561134,-55.4257640703905));
#626=CARTESIAN_POINT('Ctrl Pts',(0.376765603452043,129.723626318402,-55.43));
#627=CARTESIAN_POINT('Ctrl Pts',(-0.376765603456022,129.723626318402,-55.43));
#628=CARTESIAN_POINT('Ctrl Pts',(-0.778594292436878,129.648314561134,-55.4257640703904));
#629=CARTESIAN_POINT('Ctrl Pts',(-1.51771062191898,129.342130634145,-55.4104510568878));
#630=CARTESIAN_POINT('Ctrl Pts',(-1.8550044679651,129.111262537558,-55.3995928378375));
#631=CARTESIAN_POINT('Ctrl Pts',(-2.38763629642307,128.5786307091,-55.379193937178));
#632=CARTESIAN_POINT('Ctrl Pts',(-2.61850433479964,128.241336898085,-55.3683287712325));
#633=CARTESIAN_POINT('Ctrl Pts',(-2.9246882124275,127.502220680231,-55.3529998713753));
#634=CARTESIAN_POINT('Ctrl Pts',(-3.000000000002,127.100392031166,-55.3487569869459));
#635=CARTESIAN_POINT('Ctrl Pts',(-3.00000000000199,126.723626318402,-55.3487569869459));
#636=CARTESIAN_POINT('Origin',(0.,2.911,-1.99643547647058E-15));
#637=CARTESIAN_POINT('',(-55.4300000000001,2.911,-1.99643547647058E-15));
#638=CARTESIAN_POINT('Origin',(0.,2.911,-1.99643547647058E-15));
#639=CARTESIAN_POINT('',(-52.1299999999999,2.911,-1.99643547647058E-15));
#640=CARTESIAN_POINT('Origin',(0.,2.911,-1.99643547647058E-15));
#641=CARTESIAN_POINT('Origin',(0.,172.911,-2.86471901310244E-15));
#642=CARTESIAN_POINT('',(-55.43,172.911,3.29101574145979E-14));
#643=CARTESIAN_POINT('Origin',(0.,172.911,-2.86471901310244E-15));
#644=CARTESIAN_POINT('',(-52.1299999999999,172.911,1.39243828138918E-13));
#645=CARTESIAN_POINT('Origin',(0.,172.911,-2.86471901310244E-15));
#646=CARTESIAN_POINT('Origin',(0.,2.911,-1.99643547647058E-15));
#647=CARTESIAN_POINT('',(-55.43,2.91100000000001,4.59947028665641E-15));
#648=CARTESIAN_POINT('',(8.67615853215767,116.856401502879,54.7467731754564));
#649=CARTESIAN_POINT('',(26.8516962451688,135.856401502879,48.4919715907406));
#650=CARTESIAN_POINT('Ctrl Pts',(8.67615853215766,116.856401502879,54.7467731754564));
#651=CARTESIAN_POINT('Ctrl Pts',(8.67615853215766,118.059604233954,54.7467731754564));
#652=CARTESIAN_POINT('Ctrl Pts',(8.79746709581411,119.300867100684,54.728008609694));
#653=CARTESIAN_POINT('Ctrl Pts',(9.30227955280287,121.764215248926,54.6444686012383));
#654=CARTESIAN_POINT('Ctrl Pts',(9.68558267896896,122.986338826541,54.5796093552201));
#655=CARTESIAN_POINT('Ctrl Pts',(10.6867783691607,125.325678397984,54.3924352494642));
#656=CARTESIAN_POINT('Ctrl Pts',(11.3053038020632,126.444919888206,54.2696682904041));
#657=CARTESIAN_POINT('Ctrl Pts',(12.7158179607477,128.512807664197,53.9566007446885));
#658=CARTESIAN_POINT('Ctrl Pts',(13.5077201366582,129.461448466092,53.7658741394169));
#659=CARTESIAN_POINT('Ctrl Pts',(15.1704203743176,131.138199592803,53.3205576006003));
#660=CARTESIAN_POINT('Ctrl Pts',(16.0991206991335,131.925348766513,53.0509353594992));
#661=CARTESIAN_POINT('Ctrl Pts',(18.0931412041676,133.315429135228,52.4044050739568));
#662=CARTESIAN_POINT('Ctrl Pts',(19.1582873312689,133.918460171389,52.0271749374898));
#663=CARTESIAN_POINT('Ctrl Pts',(21.3469049380461,134.888937640473,51.168120494162));
#664=CARTESIAN_POINT('Ctrl Pts',(22.47218593268,135.257172491629,50.6853093126746));
#665=CARTESIAN_POINT('Ctrl Pts',(24.6997854797453,135.740965670994,49.6378919573476));
#666=CARTESIAN_POINT('Ctrl Pts',(25.8020809777221,135.856401502879,49.073180178703));
#667=CARTESIAN_POINT('Ctrl Pts',(26.8516962451687,135.856401502879,48.4919715907406));
#668=CARTESIAN_POINT('Ctrl Pts',(26.8516962451687,135.856401502879,48.4919715907406));
#669=CARTESIAN_POINT('Ctrl Pts',(27.9078053453879,135.856401502879,47.9071671410437));
#670=CARTESIAN_POINT('Ctrl Pts',(28.9775882681366,135.739558913109,47.2685693472697));
#671=CARTESIAN_POINT('Ctrl Pts',(31.0595632765646,135.251954442036,45.9273534948733));
#672=CARTESIAN_POINT('Ctrl Pts',(32.0718363376443,134.881340735933,45.2248072712881));
#673=CARTESIAN_POINT('Ctrl Pts',(33.973145383884,133.906394939111,43.8145098274128));
#674=CARTESIAN_POINT('Ctrl Pts',(34.8639380618303,133.301306653066,43.1057709967885));
#675=CARTESIAN_POINT('Ctrl Pts',(36.4816297950168,131.907714801005,41.745566925392));
#676=CARTESIAN_POINT('Ctrl Pts',(37.2087026505881,131.119102780755,41.094419528137));
#677=CARTESIAN_POINT('Ctrl Pts',(38.476134463013,129.443698713689,39.9101793242416));
#678=CARTESIAN_POINT('Ctrl Pts',(39.0613234723892,128.498209400095,39.3348396548932));
#679=CARTESIAN_POINT('Ctrl Pts',(40.0825233950033,126.436335665504,38.2937060163398));
#680=CARTESIAN_POINT('Ctrl Pts',(40.518840800728,125.319944246217,37.8282265772913));
#681=CARTESIAN_POINT('Ctrl Pts',(41.2161046280983,122.985025837911,37.0672892814542));
#682=CARTESIAN_POINT('Ctrl Pts',(41.4777745266647,121.764426794009,36.7715485795738));
#683=CARTESIAN_POINT('Ctrl Pts',(41.8210663618405,119.302327193517,36.380640086464));
#684=CARTESIAN_POINT('Ctrl Pts',(41.9026488339085,118.060783027079,36.2857123493828));
#685=CARTESIAN_POINT('Ctrl Pts',(41.9026488339085,115.65201997868,36.2857123493828));
#686=CARTESIAN_POINT('Ctrl Pts',(41.8210663618405,114.410475812242,36.380640086464));
#687=CARTESIAN_POINT('Ctrl Pts',(41.4777745266647,111.94837621175,36.7715485795738));
#688=CARTESIAN_POINT('Ctrl Pts',(41.2161046280983,110.727777167847,37.0672892814542));
#689=CARTESIAN_POINT('Ctrl Pts',(40.518840800728,108.392858759541,37.8282265772913));
#690=CARTESIAN_POINT('Ctrl Pts',(40.0825233950033,107.276467340254,38.2937060163398));
#691=CARTESIAN_POINT('Ctrl Pts',(39.0613234723892,105.214593605664,39.3348396548932));
#692=CARTESIAN_POINT('Ctrl Pts',(38.476134463013,104.269104292069,39.9101793242416));
#693=CARTESIAN_POINT('Ctrl Pts',(37.2087026505881,102.593700225004,41.094419528137));
#694=CARTESIAN_POINT('Ctrl Pts',(36.4816297950168,101.805088204753,41.745566925392));
#695=CARTESIAN_POINT('Ctrl Pts',(34.8639380618303,100.411496352692,43.1057709967885));
#696=CARTESIAN_POINT('Ctrl Pts',(33.973145383884,99.806408066647,43.8145098274128));
#697=CARTESIAN_POINT('Ctrl Pts',(32.0718363376443,98.8314622698254,45.2248072712881));
#698=CARTESIAN_POINT('Ctrl Pts',(31.0595632765646,98.4608485637221,45.9273534948733));
#699=CARTESIAN_POINT('Ctrl Pts',(28.9775882681366,97.9732440926495,47.2685693472697));
#700=CARTESIAN_POINT('Ctrl Pts',(27.9078053453878,97.8564015028792,47.9071671410436));
#701=CARTESIAN_POINT('Ctrl Pts',(25.8020809777221,97.8564015028792,49.0731801787031));
#702=CARTESIAN_POINT('Ctrl Pts',(24.6997854797451,97.9718373347645,49.6378919573476));
#703=CARTESIAN_POINT('Ctrl Pts',(22.4721859326797,98.4556305141296,50.6853093126747));
#704=CARTESIAN_POINT('Ctrl Pts',(21.3469049380458,98.823865365285,51.1681204941621));
#705=CARTESIAN_POINT('Ctrl Pts',(19.1582873312686,99.7943428343699,52.0271749374898));
#706=CARTESIAN_POINT('Ctrl Pts',(18.0931412041673,100.397373870531,52.4044050739569));
#707=CARTESIAN_POINT('Ctrl Pts',(16.0991206991335,101.787454239245,53.0509353594992));
#708=CARTESIAN_POINT('Ctrl Pts',(15.1704203743176,102.574603412956,53.3205576006003));
#709=CARTESIAN_POINT('Ctrl Pts',(13.5077201366582,104.251354539666,53.7658741394169));
#710=CARTESIAN_POINT('Ctrl Pts',(12.7158179607474,105.199995341561,53.9566007446885));
#711=CARTESIAN_POINT('Ctrl Pts',(11.305303802063,107.267883117553,54.2696682904042));
#712=CARTESIAN_POINT('Ctrl Pts',(10.6867783691604,108.387124607775,54.3924352494642));
#713=CARTESIAN_POINT('Ctrl Pts',(9.68558267896896,110.726464179217,54.5796093552201));
#714=CARTESIAN_POINT('Ctrl Pts',(9.30227955280287,111.948587756833,54.6444686012383));
#715=CARTESIAN_POINT('Ctrl Pts',(8.79746709581411,114.411935905075,54.728008609694));
#716=CARTESIAN_POINT('Ctrl Pts',(8.67615853215766,115.653198771805,54.7467731754564));
#717=CARTESIAN_POINT('Ctrl Pts',(8.67615853215766,116.856401502879,54.7467731754564));
#718=CARTESIAN_POINT('Origin',(0.,2.911,-1.99643547647058E-15));
#719=CARTESIAN_POINT('',(-52.13,2.91100000000001,4.20678601787923E-15));
#720=CARTESIAN_POINT('',(7.05082580075981,116.856401502879,51.6509705187362));
#721=CARTESIAN_POINT('',(25.3173136583839,135.856401502879,45.5694034317217));
#722=CARTESIAN_POINT('Ctrl Pts',(7.05082580075991,116.856401502879,51.6509705187361));
#723=CARTESIAN_POINT('Ctrl Pts',(7.05082580075991,115.651729898682,51.6509705187361));
#724=CARTESIAN_POINT('Ctrl Pts',(7.17375426887742,114.409410034593,51.6346854184275));
#725=CARTESIAN_POINT('Ctrl Pts',(7.68458150833794,111.944803210143,51.5611355140675));
#726=CARTESIAN_POINT('Ctrl Pts',(8.07226457032868,110.722474549034,51.503770102582));
#727=CARTESIAN_POINT('Ctrl Pts',(9.08371497065303,108.383369912356,51.3350356372273));
#728=CARTESIAN_POINT('Ctrl Pts',(9.70810837614437,107.26454667034,51.223201620703));
#729=CARTESIAN_POINT('Ctrl Pts',(11.1305083485126,105.197653197307,50.9330495487818));
#730=CARTESIAN_POINT('Ctrl Pts',(11.9284213444084,104.249582096482,50.7542791642973));
#731=CARTESIAN_POINT('Ctrl Pts',(13.6018313637155,102.574186691245,50.331594253778));
#732=CARTESIAN_POINT('Ctrl Pts',(14.5357306607221,101.787633707773,50.0734550275216));
#733=CARTESIAN_POINT('Ctrl Pts',(16.5393419805591,100.398233338923,49.4478364649984));
#734=CARTESIAN_POINT('Ctrl Pts',(17.6088776520893,99.7952851678543,49.0800162366416));
#735=CARTESIAN_POINT('Ctrl Pts',(19.8047712444102,98.8246672800862,48.2357917097011));
#736=CARTESIAN_POINT('Ctrl Pts',(20.932962860721,98.4562067034871,47.7583925289834));
#737=CARTESIAN_POINT('Ctrl Pts',(23.1644419232407,97.972011355296,46.7168237518989));
#738=CARTESIAN_POINT('Ctrl Pts',(24.2677042615517,97.8564015028792,46.1525422994097));
#739=CARTESIAN_POINT('Ctrl Pts',(26.3743091363057,97.8564015028792,44.9821610270645));
#740=CARTESIAN_POINT('Ctrl Pts',(27.4432716755032,97.9736143504193,44.3389325186574));
#741=CARTESIAN_POINT('Ctrl Pts',(29.5201261474037,98.4621527445861,42.9841395096979));
#742=CARTESIAN_POINT('Ctrl Pts',(30.5281038833058,98.8333245777048,42.2726511204061));
#743=CARTESIAN_POINT('Ctrl Pts',(32.4181143163278,99.8090307398206,40.8412539398432));
#744=CARTESIAN_POINT('Ctrl Pts',(33.3019156161424,100.41431975967,40.1203388085408));
#745=CARTESIAN_POINT('Ctrl Pts',(34.9043785383088,101.807693150728,38.7342681444871));
#746=CARTESIAN_POINT('Ctrl Pts',(35.6232286623177,102.595887593284,38.0694412214709));
#747=CARTESIAN_POINT('Ctrl Pts',(36.8745401643034,104.269720634311,36.8586651211943));
#748=CARTESIAN_POINT('Ctrl Pts',(37.451457739289,105.214210614536,36.2693182179966));
#749=CARTESIAN_POINT('Ctrl Pts',(38.4572828311119,107.274245990028,35.201030214172));
#750=CARTESIAN_POINT('Ctrl Pts',(38.8865160165173,108.389806069719,34.7224241081091));
#751=CARTESIAN_POINT('Ctrl Pts',(39.5721529673025,110.723846812966,33.9389541280467));
#752=CARTESIAN_POINT('Ctrl Pts',(39.8292876766928,111.944427705291,33.6338212374866));
#753=CARTESIAN_POINT('Ctrl Pts',(40.1666680646227,114.407636533611,33.2301800265226));
#754=CARTESIAN_POINT('Ctrl Pts',(40.2468813081373,115.650312861405,33.1319399517854));
#755=CARTESIAN_POINT('Ctrl Pts',(40.2468813081373,118.062490144354,33.1319399517854));
#756=CARTESIAN_POINT('Ctrl Pts',(40.1666680646227,119.305166472148,33.2301800265226));
#757=CARTESIAN_POINT('Ctrl Pts',(39.8292876766928,121.768375300467,33.6338212374866));
#758=CARTESIAN_POINT('Ctrl Pts',(39.5721529673025,122.988956192792,33.9389541280467));
#759=CARTESIAN_POINT('Ctrl Pts',(38.8865160165173,125.322996936039,34.7224241081091));
#760=CARTESIAN_POINT('Ctrl Pts',(38.4572828311119,126.43855701573,35.201030214172));
#761=CARTESIAN_POINT('Ctrl Pts',(37.451457739289,128.498592391223,36.2693182179966));
#762=CARTESIAN_POINT('Ctrl Pts',(36.8745401643034,129.443082371447,36.8586651211943));
#763=CARTESIAN_POINT('Ctrl Pts',(35.6232286623177,131.116915412474,38.0694412214709));
#764=CARTESIAN_POINT('Ctrl Pts',(34.9043785383088,131.905109855031,38.7342681444871));
#765=CARTESIAN_POINT('Ctrl Pts',(33.3019156161424,133.298483246088,40.1203388085408));
#766=CARTESIAN_POINT('Ctrl Pts',(32.4181143163278,133.903772265938,40.8412539398434));
#767=CARTESIAN_POINT('Ctrl Pts',(30.5281038833058,134.879478428053,42.2726511204061));
#768=CARTESIAN_POINT('Ctrl Pts',(29.5201261474037,135.250650261172,42.9841395096979));
#769=CARTESIAN_POINT('Ctrl Pts',(27.4432716755032,135.739188655339,44.3389325186574));
#770=CARTESIAN_POINT('Ctrl Pts',(26.3743091363057,135.856401502879,44.9821610270645));
#771=CARTESIAN_POINT('Ctrl Pts',(25.3173136583839,135.856401502879,45.5694034317217));
#772=CARTESIAN_POINT('Ctrl Pts',(25.3173136583839,135.856401502879,45.5694034317217));
#773=CARTESIAN_POINT('Ctrl Pts',(24.2677042615517,135.856401502879,46.1525422994096));
#774=CARTESIAN_POINT('Ctrl Pts',(23.1644419232407,135.740791650462,46.7168237518987));
#775=CARTESIAN_POINT('Ctrl Pts',(20.9329628607213,135.256596302271,47.7583925289832));
#776=CARTESIAN_POINT('Ctrl Pts',(19.8047712444105,134.888135725672,48.2357917097011));
#777=CARTESIAN_POINT('Ctrl Pts',(17.6088776520893,133.917517837904,49.0800162366418));
#778=CARTESIAN_POINT('Ctrl Pts',(16.5393419805594,133.314569666835,49.4478364649983));
#779=CARTESIAN_POINT('Ctrl Pts',(14.5357306607221,131.925169297985,50.0734550275214));
#780=CARTESIAN_POINT('Ctrl Pts',(13.6018313637155,131.138616314513,50.331594253778));
#781=CARTESIAN_POINT('Ctrl Pts',(11.9284213444084,129.463220909277,50.7542791642973));
#782=CARTESIAN_POINT('Ctrl Pts',(11.1305083485126,128.515149808451,50.9330495487818));
#783=CARTESIAN_POINT('Ctrl Pts',(9.70810837614437,126.448256335418,51.223201620703));
#784=CARTESIAN_POINT('Ctrl Pts',(9.08371497065303,125.329433093402,51.3350356372273));
#785=CARTESIAN_POINT('Ctrl Pts',(8.07226457032868,122.990328456724,51.503770102582));
#786=CARTESIAN_POINT('Ctrl Pts',(7.68458150833794,121.767999795616,51.5611355140675));
#787=CARTESIAN_POINT('Ctrl Pts',(7.17375426887742,119.303392971165,51.6346854184275));
#788=CARTESIAN_POINT('Ctrl Pts',(7.05082580075991,118.061073107076,51.650970518736));
#789=CARTESIAN_POINT('Ctrl Pts',(7.05082580075991,116.856401502879,51.650970518736));
#790=CARTESIAN_POINT('Origin',(26.8516962451687,116.856401502879,48.4919715907404));
#791=CARTESIAN_POINT('',(26.8516962451687,135.856401502879,48.4919715907404));
#792=CARTESIAN_POINT('Origin',(-0.00399642471194284,116.929788023606,168.752917565805));
#793=CARTESIAN_POINT('',(-20.0039964247119,116.929788023606,168.752917565805));
#794=CARTESIAN_POINT('Origin',(-0.00399642471194284,116.929788023606,168.752917565805));
#795=CARTESIAN_POINT('',(-18.0039964247121,116.929788023606,168.752917565805));
#796=CARTESIAN_POINT('Origin',(-0.00399642471194284,116.929788023606,168.752917565805));
#797=CARTESIAN_POINT('Origin',(-0.00399642471194284,116.929788023606,98.7509175658046));
#798=CARTESIAN_POINT('',(-20.0039964247119,116.929788023606,98.7509175658046));
#799=CARTESIAN_POINT('Origin',(-0.00399642471194284,116.929788023606,98.7509175658046));
#800=CARTESIAN_POINT('',(-18.0039964247121,116.929788023606,98.7509175658046));
#801=CARTESIAN_POINT('Origin',(-0.00399642471194284,116.929788023606,98.7509175658046));
#802=CARTESIAN_POINT('Origin',(-0.00399642471194284,116.929788023606,92.3609175658046));
#803=CARTESIAN_POINT('',(-18.0039964247119,116.929788023606,92.3609175658046));
#804=CARTESIAN_POINT('Origin',(-0.00399642471194284,116.929788023606,92.3609175658046));
#805=CARTESIAN_POINT('',(-20.0039964247119,116.929788023606,92.3609175658046));
#806=UNCERTAINTY_MEASURE_WITH_UNIT(LENGTH_MEASURE(0.01),#810,
'DISTANCE_ACCURACY_VALUE',
'Maximum model space distance between geometric entities at asserted c
onnectivities');
#807=UNCERTAINTY_MEASURE_WITH_UNIT(LENGTH_MEASURE(0.01),#810,
'DISTANCE_ACCURACY_VALUE',
'Maximum model space distance between geometric entities at asserted c
onnectivities');
#808=(
GEOMETRIC_REPRESENTATION_CONTEXT(3)
GLOBAL_UNCERTAINTY_ASSIGNED_CONTEXT((#806))
GLOBAL_UNIT_ASSIGNED_CONTEXT((#810,#812,#813))
REPRESENTATION_CONTEXT('','3D')
);
#809=(
GEOMETRIC_REPRESENTATION_CONTEXT(3)
GLOBAL_UNCERTAINTY_ASSIGNED_CONTEXT((#807))
GLOBAL_UNIT_ASSIGNED_CONTEXT((#810,#812,#813))
REPRESENTATION_CONTEXT('','3D')
);
#810=(
LENGTH_UNIT()
NAMED_UNIT(*)
SI_UNIT(.MILLI.,.METRE.)
);
#811=(
LENGTH_UNIT()
NAMED_UNIT(*)
SI_UNIT($,.METRE.)
);
#812=(
NAMED_UNIT(*)
PLANE_ANGLE_UNIT()
SI_UNIT($,.RADIAN.)
);
#813=(
NAMED_UNIT(*)
SI_UNIT($,.STERADIAN.)
SOLID_ANGLE_UNIT()
);
#814=SHAPE_DEFINITION_REPRESENTATION(#815,#816);
#815=PRODUCT_DEFINITION_SHAPE('',$,#818);
#816=SHAPE_REPRESENTATION('',(#266),#808);
#817=PRODUCT_DEFINITION_CONTEXT('part definition',#822,'design');
#818=PRODUCT_DEFINITION('PVC','PVC',#819,#817);
#819=PRODUCT_DEFINITION_FORMATION('',$,#824);
#820=PRODUCT_RELATED_PRODUCT_CATEGORY('PVC','PVC',(#824));
#821=APPLICATION_PROTOCOL_DEFINITION('international standard',
'automotive_design',2009,#822);
#822=APPLICATION_CONTEXT(
'Core Data for Automotive Mechanical Design Process');
#823=PRODUCT_CONTEXT('part definition',#822,'mechanical');
#824=PRODUCT('PVC','PVC',$,(#823));
#825=PRESENTATION_STYLE_ASSIGNMENT((#827));
#826=PRESENTATION_STYLE_ASSIGNMENT((#828));
#827=SURFACE_STYLE_USAGE(.BOTH.,#829);
#828=SURFACE_STYLE_USAGE(.BOTH.,#830);
#829=SURFACE_SIDE_STYLE('',(#831));
#830=SURFACE_SIDE_STYLE('',(#832));
#831=SURFACE_STYLE_FILL_AREA(#833);
#832=SURFACE_STYLE_FILL_AREA(#834);
#833=FILL_AREA_STYLE('Steel - Satin',(#835));
#834=FILL_AREA_STYLE(
'PEKK - Polyetherketoneketone Reinforced With Carbon Fibers - HT-23 (w
ith EOS P 810 3D Printer)',(#836));
#835=FILL_AREA_STYLE_COLOUR('Steel - Satin',#837);
#836=FILL_AREA_STYLE_COLOUR(
'PEKK - Polyetherketoneketone Reinforced With Carbon Fibers - HT-23 (w
ith EOS P 810 3D Printer)',#838);
#837=COLOUR_RGB('Steel - Satin',0.627450980392157,0.627450980392157,0.627450980392157);
#838=COLOUR_RGB(
'PEKK - Polyetherketoneketone Reinforced With Carbon Fibers - HT-23 (w
ith EOS P 810 3D Printer)',0.352941176470588,0.352941176470588,0.352941176470588);
ENDSEC;
END-ISO-10303-21;
